<svg xmlns="http://www.w3.org/2000/svg" viewBox="0 0 480 520"><g transform="translate(240, 170)" style="color:#F5C518"><circle r="42" fill="#F5C518" opacity="0.12"/><circle r="130" stroke="currentColor" stroke-width="3" fill="none"/><g stroke="currentColor" stroke-width="1.8" stroke-linecap="round" fill="none" opacity="0.85"><line x1="0" y1="0" x2="0" y2="-95"/><line x1="0" y1="0" x2="82" y2="-47"/><line x1="0" y1="0" x2="82" y2="47"/><line x1="0" y1="0" x2="0" y2="95"/><line x1="0" y1="0" x2="-82" y2="47"/><line x1="0" y1="0" x2="-82" y2="-47"/></g><g stroke="currentColor" stroke-width="2.2" stroke-linecap="round" fill="none"><line x1="0" y1="-95" x2="82" y2="-47"/><line x1="82" y1="-47" x2="82" y2="47"/><line x1="82" y1="47" x2="0" y2="95"/><line x1="0" y1="95" x2="-82" y2="47"/><line x1="-82" y1="47" x2="-82" y2="-47"/><line x1="-82" y1="-47" x2="0" y2="-95"/></g><g fill="currentColor"><circle cx="0" cy="-95" r="9"/><circle cx="82" cy="-47" r="9"/><circle cx="82" cy="47" r="9"/><circle cx="0" cy="95" r="9"/><circle cx="-82" cy="47" r="9"/><circle cx="-82" cy="-47" r="9"/></g><circle r="20" fill="#F5C518"/><circle r="30" stroke="currentColor" stroke-width="3" fill="none"/></g><g transform="translate(0, 340)"><text x="0" y="74" font-family="Inter,Montserrat,sans-serif" font-weight="800" font-size="64" fill="#F5C518">SMART</text><text x="2" y="124" font-family="Inter,Montserrat,sans-serif" font-weight="500" font-size="40" letter-spacing="7" fill="#FFFFFF">BUSINESS</text></g></svg>