<svg xmlns="http://www.w3.org/2000/svg" viewBox="-160 -160 320 320" style="color:#F5C518"><circle r="42" fill="#F5C518" opacity="0.12"/><circle r="130" stroke="currentColor" stroke-width="3" fill="none"/><g stroke="currentColor" stroke-width="1.8" stroke-linecap="round" fill="none" opacity="0.85"><line x1="0" y1="0" x2="0" y2="-95"/><line x1="0" y1="0" x2="82" y2="-47"/><line x1="0" y1="0" x2="82" y2="47"/><line x1="0" y1="0" x2="0" y2="95"/><line x1="0" y1="0" x2="-82" y2="47"/><line x1="0" y1="0" x2="-82" y2="-47"/></g><g stroke="currentColor" stroke-width="2.2" stroke-linecap="round" fill="none"><line x1="0" y1="-95" x2="82" y2="-47"/><line x1="82" y1="-47" x2="82" y2="47"/><line x1="82" y1="47" x2="0" y2="95"/><line x1="0" y1="95" x2="-82" y2="47"/><line x1="-82" y1="47" x2="-82" y2="-47"/><line x1="-82" y1="-47" x2="0" y2="-95"/></g><g fill="currentColor"><circle cx="0" cy="-95" r="9"/><circle cx="82" cy="-47" r="9"/><circle cx="82" cy="47" r="9"/><circle cx="0" cy="95" r="9"/><circle cx="-82" cy="47" r="9"/><circle cx="-82" cy="-47" r="9"/></g><circle cx="82" cy="-47" r="9" fill="currentColor"/><circle r="20" fill="#F5C518"/><circle r="30" stroke="currentColor" stroke-width="3" fill="none"/></svg>